<svg width="26" height="26" viewBox="0 0 26 26" fill="none" xmlns="http://www.w3.org/2000/svg">
<path fill-rule="evenodd" clip-rule="evenodd" d="M2.67474 7.54974C2.75021 7.47407 2.83987 7.41404 2.93858 7.37308C3.03729 7.33212 3.14312 7.31104 3.24999 7.31104C3.35686 7.31104 3.46268 7.33212 3.56139 7.37308C3.6601 7.41404 3.74976 7.47407 3.82524 7.54974L13 16.7261L22.1747 7.54974C22.2503 7.47419 22.34 7.41427 22.4387 7.37339C22.5374 7.3325 22.6432 7.31146 22.75 7.31146C22.8568 7.31146 22.9626 7.3325 23.0613 7.37339C23.16 7.41427 23.2497 7.47419 23.3252 7.54974C23.4008 7.62528 23.4607 7.71496 23.5016 7.81366C23.5425 7.91237 23.5635 8.01815 23.5635 8.12499C23.5635 8.23182 23.5425 8.33761 23.5016 8.43631C23.4607 8.53501 23.4008 8.62469 23.3252 8.70024L13.5752 18.4502C13.4998 18.5259 13.4101 18.5859 13.3114 18.6269C13.2127 18.6679 13.1069 18.6889 13 18.6889C12.8931 18.6889 12.7873 18.6679 12.6886 18.6269C12.5899 18.5859 12.5002 18.5259 12.4247 18.4502L2.67474 8.70024C2.59907 8.62476 2.53904 8.5351 2.49808 8.43639C2.45712 8.33768 2.43604 8.23186 2.43604 8.12499C2.43604 8.01812 2.45712 7.91229 2.49808 7.81358C2.53904 7.71487 2.59907 7.62521 2.67474 7.54974Z" fill="#BBBABF"/>
</svg>
