<svg width="25" height="25" viewBox="0 0 25 25" fill="none" xmlns="http://www.w3.org/2000/svg">
<path d="M2.02022 2.02035C2.31323 1.72742 2.71059 1.56287 3.12491 1.56287C3.53923 1.56287 3.93659 1.72742 4.2296 2.02035L12.4999 10.2907L20.7702 2.02035C20.9144 1.87111 21.0868 1.75208 21.2774 1.67019C21.468 1.5883 21.6731 1.5452 21.8805 1.54339C22.088 1.54159 22.2937 1.58113 22.4858 1.65969C22.6778 1.73825 22.8523 1.85427 22.999 2.00098C23.1457 2.14769 23.2617 2.32214 23.3403 2.51417C23.4188 2.7062 23.4584 2.91194 23.4566 3.11941C23.4547 3.32688 23.4116 3.53191 23.3298 3.72254C23.2479 3.91317 23.1288 4.08559 22.9796 4.22972L14.7093 12.5L22.9796 20.7703C23.2642 21.065 23.4217 21.4597 23.4181 21.8694C23.4146 22.2791 23.2503 22.671 22.9606 22.9607C22.6709 23.2504 22.279 23.4147 21.8693 23.4183C21.4596 23.4218 21.0649 23.2643 20.7702 22.9797L12.4999 14.7094L4.2296 22.9797C3.93491 23.2643 3.54022 23.4218 3.13053 23.4183C2.72085 23.4147 2.32896 23.2504 2.03926 22.9607C1.74956 22.671 1.58523 22.2791 1.58167 21.8694C1.57811 21.4597 1.7356 21.065 2.02022 20.7703L10.2905 12.5L2.02022 4.22972C1.7273 3.93671 1.56274 3.53935 1.56274 3.12504C1.56274 2.71072 1.7273 2.31336 2.02022 2.02035Z" fill="black"/>
</svg>
